<svg xmlns="http://www.w3.org/2000/svg" viewBox="0 0 610.03 524.53"><defs><style>.cls-1{fill:#fff;}.cls-2{fill:#f7d8bb;}.cls-3,.cls-5{fill:#4f1d00;}.cls-4{fill:#773412;}.cls-5{font-size:66.08px;font-family:SuperCaramel, Super Caramel;}.cls-6{letter-spacing:-0.01em;}.cls-7{letter-spacing:0.01em;}.cls-8{letter-spacing:-0.04em;}.cls-9{letter-spacing:-0.04em;}</style></defs><g id="Capa_2" data-name="Capa 2"><rect class="cls-1" x="27.46" width="555.11" height="524.53" rx="58.51"/></g><g id="Capa_4" data-name="Capa 4"><circle class="cls-2" cx="305.18" cy="228.11" r="207.53"/><path class="cls-3" d="M472.58,175.82q47.46,0,94.93,0c8.59,0,10.84,2.5,10.34,10.75q-3.66,59.92-7.23,119.87-3.93,65.71-7.87,131.45c-.43,7.09-2.46,8.83-10.5,8.83q-55.87.06-111.73,0c-16.14,0-32.29.06-48.43,0-7.91,0-9.76-2.05-10.23-9.86q-5.67-95-11.39-190.08c-1.23-20.62-2.34-41.25-3.45-61.88-.36-6.84,2.08-9.08,10-9.08Q424.79,175.78,472.58,175.82Zm91.5,13.75H380.55c2.35,39.91,4.68,79.36,7,119H557C559.37,269,561.7,229.75,564.08,189.57Z" transform="translate(-174.99 -10.88)"/><path class="cls-3" d="M589,82.07c5.89,0,10.79-.15,15.68,0,19.66.71,33.57,14.85,33.26,33.69-.29,18.35-14.67,31.68-34.35,31.76-15.93.06-31.86.15-47.79-.06-3.93-.06-6.07,1.2-8.1,4.6-10.6,17.86-4.59,14.8-26.28,14.89-36.17.15-72.33,0-108.5.1-4.39,0-7.78-.76-10.22-5-16.77-29.32-33.8-58.49-50.57-87.81-5.82-10.18-3.36-14,8.4-14,73-.08,146,0,218.92-.39,16.82-.09,21.53,5,11,18.49C590,78.92,589.85,79.82,589,82.07Zm-11.75-8H367.37c4.81,8.39,13.7,23.5,13.7,23.5s181.71,1.16,182.7-.39C568.36,89.91,572.44,82.36,577.23,74ZM558,134.1c17.73,0,34.24.65,50.67-.25,9.94-.54,16.65-10.21,16.07-20.13a19.12,19.12,0,0,0-18.36-18.21c-7.52-.31-15.07-.2-22.6,0-1.51,0-3.72.69-4.38,1.79C572.25,109.18,565.38,121.24,558,134.1Z" transform="translate(-174.99 -10.88)"/><polygon class="cls-4" points="212.58 297.73 382.04 297.73 374.13 423.9 220.81 423.9 212.58 297.73"/><path class="cls-4" d="M448.1,270.49c1.16-3.87,1.77-8,3.61-11.54a128,128,0,0,1,10.84-17.51c8.44-11.26,11.45-11.37,19.55-.13A116.74,116.74,0,0,1,494.6,263c4.13,9.57-.06,21.92-8.35,28.42a22.12,22.12,0,0,1-25.95,1.15C452.63,287.38,448.87,280,448.1,270.49Z" transform="translate(-174.99 -10.88)"/><polygon class="cls-4" points="206.08 86.64 388.78 86.25 355.41 144.4 240.3 144.14 206.08 86.64"/><text class="cls-5" transform="translate(104.66 490.76)"><tspan class="cls-6">H</tspan><tspan x="43.4" y="0">omeC</tspan><tspan class="cls-7" x="222.23" y="0">o</tspan><tspan class="cls-8" x="262.4" y="0">f</tspan><tspan class="cls-9" x="293.09" y="0">f</tspan><tspan x="323.64" y="0">ee</tspan></text></g></svg>